<svg width="23" height="21" viewBox="0 0 23 21" fill="none" xmlns="http://www.w3.org/2000/svg">
<mask id="path-1-inside-1_1_306" fill="white">
<path fill-rule="evenodd" clip-rule="evenodd" d="M11.4509 1.96466C11.472 1.98577 11.4929 2.007 11.5137 2.02833L11.5144 2.02761L11.5148 2.02802C14.1391 -0.528493 18.3389 -0.507541 20.9373 2.09088C23.5358 4.6893 23.5567 8.88915 21.0002 11.5134L21.0006 11.5138L20.9411 11.5733C20.9398 11.5746 20.9386 11.5758 20.9373 11.5771C20.9361 11.5783 20.9349 11.5796 20.9336 11.5808L11.5144 21L2.02822 11.5138L2.02833 11.5137C2.007 11.4929 1.98577 11.472 1.96466 11.4509C-0.654885 8.83131 -0.654885 4.5842 1.96466 1.96466C4.5842 -0.654885 8.83131 -0.654885 11.4509 1.96466Z"/>
</mask>
<path d="M11.5137 2.02833L9.83043 3.66818L11.4921 5.37386L13.1757 3.68975L11.5137 2.02833ZM11.4509 1.96466L9.78915 3.62636L9.78916 3.62637L11.4509 1.96466ZM11.5144 2.02761L13.1766 0.366386L11.5146 -1.29655L9.85244 0.366183L11.5144 2.02761ZM11.5148 2.02802L9.85265 3.68924L11.4928 5.33031L13.1547 3.7113L11.5148 2.02802ZM20.9373 2.09088L19.2756 3.75258V3.75258L20.9373 2.09088ZM21.0002 11.5134L19.3169 9.87356L17.6984 11.535L19.3385 13.1751L21.0002 11.5134ZM21.0006 11.5138L22.6623 13.1755L24.324 11.5138L22.6623 9.8521L21.0006 11.5138ZM20.9411 11.5733L19.2794 9.91166L19.2781 9.91293L20.9411 11.5733ZM20.9373 11.5771L22.5984 13.2394L22.599 13.2388L20.9373 11.5771ZM20.9336 11.5808L19.2732 9.91782L19.2719 9.9191L20.9336 11.5808ZM11.5144 21L9.85272 22.6617L11.5144 24.3234L13.1761 22.6617L11.5144 21ZM2.02822 11.5138L0.36652 9.8521L-1.29518 11.5138L0.36652 13.1755L2.02822 11.5138ZM2.02833 11.5137L3.69003 13.1754L5.37359 11.4918L3.66817 9.83043L2.02833 11.5137ZM1.96466 11.4509L3.62636 9.78916L3.62636 9.78915L1.96466 11.4509ZM1.96466 1.96466L3.62636 3.62636L1.96466 1.96466ZM13.197 0.388473C13.1691 0.359825 13.1409 0.331315 13.1125 0.302945L9.78916 3.62637C9.80303 3.64023 9.81679 3.65417 9.83043 3.66818L13.197 0.388473ZM9.85244 0.366183L9.85172 0.366902L13.1757 3.68975L13.1764 3.68903L9.85244 0.366183ZM13.177 0.3668L13.1766 0.366386L9.85224 3.68883L9.85265 3.68924L13.177 0.3668ZM13.1547 3.7113C14.8591 2.0509 17.5877 2.06462 19.2756 3.75258L22.599 0.429177C19.0902 -3.0797 13.4191 -3.10789 9.87499 0.344742L13.1547 3.7113ZM19.2756 3.75258C20.9636 5.44054 20.9773 8.16917 19.3169 9.87356L22.6835 13.1532C26.1361 9.60913 26.1079 3.93805 22.599 0.429177L19.2756 3.75258ZM22.6623 9.8521L22.6619 9.85169L19.3385 13.1751L19.3389 13.1755L22.6623 9.8521ZM22.6028 13.235L22.6623 13.1755L19.3389 9.85212L19.2794 9.91166L22.6028 13.235ZM19.2781 9.91293C19.2776 9.91342 19.277 9.91403 19.2756 9.91537L22.599 13.2388C22.6002 13.2376 22.6021 13.2358 22.604 13.2338L19.2781 9.91293ZM19.2763 9.91474C19.275 9.91603 19.2741 9.91695 19.2732 9.91782L22.594 13.2438C22.5957 13.2422 22.5972 13.2406 22.5984 13.2394L19.2763 9.91474ZM13.1761 22.6617L22.5953 13.2425L19.2719 9.9191L9.85272 19.3383L13.1761 22.6617ZM0.36652 13.1755L9.85272 22.6617L13.1761 19.3383L3.68992 9.8521L0.36652 13.1755ZM0.366627 9.852L0.36652 9.8521L3.68992 13.1755L3.69003 13.1754L0.366627 9.852ZM0.30295 13.1125C0.331314 13.1409 0.359825 13.1691 0.388483 13.197L3.66817 9.83043C3.65417 9.81679 3.64024 9.80303 3.62636 9.78916L0.30295 13.1125ZM0.302955 0.302955C-3.23432 3.84023 -3.23432 9.57528 0.302955 13.1126L3.62636 9.78915C1.92455 8.08734 1.92455 5.32817 3.62636 3.62636L0.302955 0.302955ZM13.1126 0.302955C9.57528 -3.23432 3.84023 -3.23432 0.302955 0.302955L3.62636 3.62636C5.32817 1.92455 8.08734 1.92455 9.78915 3.62636L13.1126 0.302955Z" fill="black" mask="url(#path-1-inside-1_1_306)"/>
</svg>
